HIERARCHY
ROOT Hips
{
	OFFSET 0.000000 0.000000 0.000000
	CHANNELS 6 Xposition Yposition Zposition Xrotation Yrotation Zrotation
	JOINT LeftUpLeg_virtual
	{
		OFFSET 0.000000 0.000000 0.000000
		CHANNELS 3 Xrotation Yrotation Zrotation
		JOINT LeftUpLeg
		{
			OFFSET 11.394100 -6.187798 -0.413800
			CHANNELS 3 Xrotation Yrotation Zrotation
			JOINT LeftLeg
			{
				OFFSET 0.430247 -32.302673 3.732800
				CHANNELS 3 Xrotation Yrotation Zrotation
				JOINT LeftFoot
				{
					OFFSET -0.430247 -48.264931 -6.423300
					CHANNELS 3 Xrotation Yrotation Zrotation
					JOINT LeftToeBase
					{
						OFFSET 4.230900 -16.068199 23.438400
						CHANNELS 3 Xrotation Yrotation Zrotation
						JOINT LeftToe_End
						{
							OFFSET 4.510700 0.695400 19.974600
							CHANNELS 3 Xrotation Yrotation Zrotation
							End Site
							{
								OFFSET 0 0 0
							}
						}
					}
				}
			}
		}
	}
	JOINT RightUpLeg_virtual
	{
		OFFSET 0.000000 0.000000 0.000000
		CHANNELS 3 Xrotation Yrotation Zrotation
		JOINT RightUpLeg
		{
			OFFSET -11.333700 -6.187798 -0.413800
			CHANNELS 3 Xrotation Yrotation Zrotation
			JOINT RightLeg
			{
				OFFSET -0.430392 -32.302628 3.733000
				CHANNELS 3 Xrotation Yrotation Zrotation
				JOINT RightFoot
				{
					OFFSET 0.430392 -48.264973 -6.423500
					CHANNELS 3 Xrotation Yrotation Zrotation
					JOINT RightToeBase
					{
						OFFSET -4.230900 -16.068199 23.438400
						CHANNELS 3 Xrotation Yrotation Zrotation
						JOINT RightToe_End
						{
							OFFSET -4.510700 0.695400 19.974600
							CHANNELS 3 Xrotation Yrotation Zrotation
							End Site
							{
								OFFSET 0 0 0
							}
						}
					}
				}
			}
		}
	}
	JOINT Spine_virtual
	{
		OFFSET 0.000000 0.000000 0.000000
		CHANNELS 3 Xrotation Yrotation Zrotation
		JOINT Spine
		{
			OFFSET -0.002400 12.777504 0.315300
			CHANNELS 3 Xrotation Yrotation Zrotation
			JOINT Spine1
			{
				OFFSET -0.002067 5.816869 0.032633
				CHANNELS 3 Xrotation Yrotation Zrotation
				JOINT Spine1_split
				{
					OFFSET -0.002067 5.816869 0.032633
					CHANNELS 3 Xrotation Yrotation Zrotation
					JOINT Spine2
					{
						OFFSET -0.002067 5.816869 0.032633
						CHANNELS 3 Xrotation Yrotation Zrotation
						JOINT Neck_virtual
						{
							OFFSET 0.000000 0.000000 0.000000
							CHANNELS 3 Xrotation Yrotation Zrotation
							JOINT Neck
							{
								OFFSET -0.003700 21.199493 -0.826900
								CHANNELS 3 Xrotation Yrotation Zrotation
								JOINT Head
								{
									OFFSET 0.000000 20.442200 4.834800
									CHANNELS 3 Xrotation Yrotation Zrotation
									JOINT HeadTop_End
									{
										OFFSET 0.000000 34.668396 4.968400
										CHANNELS 3 Xrotation Yrotation Zrotation
										End Site
										{
											OFFSET 0 0 0
										}
									}
								}
							}
						}
						JOINT LeftShoulder_virtual
						{
							OFFSET 0.000000 0.000000 0.000000
							CHANNELS 3 Xrotation Yrotation Zrotation
							JOINT LeftShoulder
							{
								OFFSET 3.288150 8.794197 -1.372250
								CHANNELS 3 Xrotation Yrotation Zrotation
								JOINT LeftShoulder_split
								{
									OFFSET 3.288150 8.794197 -1.372250
									CHANNELS 3 Xrotation Yrotation Zrotation
									JOINT LeftArm
									{
										OFFSET 11.953299 -2.279007 -0.146200
										CHANNELS 3 Xrotation Yrotation Zrotation
										JOINT LeftForeArm
										{
											OFFSET 18.448900 0.000000 0.000000
											CHANNELS 3 Xrotation Yrotation Zrotation
											JOINT LeftHand
											{
												OFFSET 29.527798 0.000000 0.000000
												CHANNELS 3 Xrotation Yrotation Zrotation
												End Site
												{
													OFFSET 0 0 0
												}
											}
										}
									}
								}
							}
						}
						JOINT RightShoulder_virtual
						{
							OFFSET 0.000000 0.000000 0.000000
							CHANNELS 3 Xrotation Yrotation Zrotation
							JOINT RightShoulder
							{
								OFFSET -3.249400 8.794197 -1.372250
								CHANNELS 3 Xrotation Yrotation Zrotation
								JOINT RightShoulder_split
								{
									OFFSET -3.249400 8.794197 -1.372250
									CHANNELS 3 Xrotation Yrotation Zrotation
									JOINT RightArm
									{
										OFFSET -11.953299 -2.279007 -0.146200
										CHANNELS 3 Xrotation Yrotation Zrotation
										JOINT RightForeArm
										{
											OFFSET -18.448900 0.000000 0.000000
											CHANNELS 3 Xrotation Yrotation Zrotation
											JOINT RightHand
											{
												OFFSET -29.527802 0.000000 0.000000
												CHANNELS 3 Xrotation Yrotation Zrotation
												End Site
												{
													OFFSET 0 0 0
												}
											}
										}
									}
								}
							}
						}
					}
				}
			}
		}
	}
}
MOTION
Frames: 11
Frame Time: 0.03333333
1.583573 58.851200 -17.784451 0.000000 0.000000 0.000000 30.396152 -1.413131 2.377484 -114.093495 -13.758530 23.001352 110.382995 5.601967 -4.016494 3.645945 -17.150567 -8.321430 -30.067852 -1.086052 -2.976036 0.000000 0.000000 0.000000 32.897709 -1.721574 2.292237 -120.257843 -5.381020 -14.156254 121.273096 14.757674 -3.553730 -20.331002 4.558116 -18.627220 -35.849184 1.329728 -0.579175 0.000000 0.000000 0.000000 32.377368 -7.863937 3.060744 7.692682 2.463753 -2.657557 23.898793 1.850767 -4.747577 1.490064 -0.187907 0.815105 0.000000 0.000000 0.000000 23.544333 1.863070 -4.758694 -26.031758 -4.845895 0.889910 -28.848264 -7.783351 3.349864 0.000000 0.000000 0.000000 22.701944 2.096009 -5.253110 1.652858 -2.188552 1.147482 0.743815 -5.612248 0.696840 -22.580657 -27.945126 -22.509006 -150.979064 -82.426948 -151.505822 0.000000 0.000000 0.000000 23.311408 2.205912 -5.138491 7.415856 28.468099 6.732143 0.007300 2.302019 -1.075341 -33.735667 8.070163 27.754998 9.992071 72.702029 -20.603715 0.000000 0.000000 0.000000 
1.507577 55.866989 -17.991650 0.000000 0.000000 0.000000 32.441097 1.699931 2.542719 -112.978432 -17.762848 23.195597 114.931306 5.785613 -2.419161 -2.014652 -17.145527 -16.167920 -31.790822 -0.843660 -3.460079 0.000000 0.000000 0.000000 34.979687 0.477541 2.687597 -127.406524 0.048442 -11.742203 126.335591 12.677249 -4.284958 -18.056647 1.808419 -16.005783 -37.982986 1.299205 0.080773 0.000000 0.000000 0.000000 35.356054 -5.406464 3.387541 6.499751 2.017702 -2.926178 22.092235 1.610203 -3.940838 1.684060 -0.076386 1.133629 0.000000 0.000000 0.000000 21.632473 1.553640 -4.061525 -21.605939 -4.454953 0.212443 -30.364941 -9.243625 2.914919 0.000000 0.000000 0.000000 20.810862 1.770771 -4.336821 1.186026 -2.068504 -0.439843 0.532675 -5.202376 0.562576 -21.148795 -32.474018 -21.820924 -157.631832 -82.338170 -159.390661 0.000000 0.000000 0.000000 21.206047 1.730879 -4.388434 7.490079 30.510838 9.159252 0.069601 2.301425 -1.201024 -35.889830 13.461552 25.255941 6.254620 66.647750 -15.182003 0.000000 0.000000 0.000000 
1.451307 53.667503 -18.411175 0.000000 0.000000 0.000000 33.953652 4.289676 2.548827 -111.279928 -21.586307 23.047266 116.254833 5.214953 -0.286753 -5.873112 -17.664124 -24.961444 -32.095189 -0.897641 -3.378832 0.000000 0.000000 0.000000 36.442157 1.938013 3.016477 -132.862288 4.084689 -9.726171 129.428888 11.012516 -4.806210 -14.372458 -0.144525 -11.868578 -39.168075 1.489883 0.243949 0.000000 0.000000 0.000000 37.660881 -3.274001 3.610182 5.587845 1.350932 -3.068763 20.075727 1.379551 -2.986849 1.522067 -0.009253 1.420819 0.000000 0.000000 0.000000 19.531920 1.231417 -3.232348 -17.452960 -4.068787 -0.451329 -31.676525 -10.155100 2.581212 0.000000 0.000000 0.000000 18.849592 1.388169 -3.341780 0.691934 -1.707569 -2.401381 0.038968 -4.364627 0.007950 -19.141178 -36.999504 -23.083236 -158.447234 -84.668842 -161.196685 0.000000 0.000000 0.000000 18.980565 1.277177 -3.461804 7.412547 31.560467 11.707611 -0.202881 2.229485 -1.065591 -37.669992 17.138521 23.951284 4.166395 61.585719 -11.250308 0.000000 0.000000 0.000000 
1.384632 52.094097 -18.728924 0.000000 0.000000 0.000000 34.967864 6.218489 2.337060 -109.922879 -24.823059 22.929196 115.983196 4.506946 1.457518 -7.540104 -18.621566 -32.328091 -33.625120 -1.316116 -2.560144 0.000000 0.000000 0.000000 37.370137 2.769476 3.150316 -136.328773 6.424971 -8.500577 130.987401 9.544068 -4.859993 -11.360881 -1.177436 -7.721213 -38.599974 1.875990 -0.001213 0.000000 0.000000 0.000000 39.117173 -1.511943 3.666235 5.116240 0.561513 -3.070901 18.172968 1.144301 -2.074807 1.279134 -0.308235 1.506040 0.000000 0.000000 0.000000 17.568566 0.911168 -2.419051 -14.147390 -3.713216 -1.027872 -32.802202 -10.550556 2.436777 0.000000 0.000000 0.000000 17.137312 0.940217 -2.469043 0.206761 -1.240143 -4.410758 -0.758915 -3.045757 -0.774827 -17.082079 -40.637935 -25.506213 -142.870304 -88.514833 -146.280372 0.000000 0.000000 0.000000 17.002719 0.858897 -2.536481 7.288403 31.711073 13.951981 -0.562725 1.926267 -0.587634 -39.223830 19.064859 23.512224 2.911702 58.264587 -8.172659 0.000000 0.000000 0.000000 
1.210451 50.902508 -18.957386 0.000000 0.000000 0.000000 35.519070 7.284273 2.005968 -109.179870 -26.947538 23.255256 115.780353 4.532815 1.741489 -7.866523 -19.328701 -36.101747 -36.565366 -1.698058 -2.331525 0.000000 0.000000 0.000000 37.914735 3.272762 2.992173 -137.965983 7.083209 -8.319205 131.688670 8.066876 -4.156533 -10.009991 -1.735418 -5.012801 -37.035895 2.334697 -0.430075 0.000000 0.000000 0.000000 39.697708 0.062101 3.463826 5.126567 -0.243027 -2.935108 16.661811 0.878922 -1.352082 1.062765 -0.972411 1.405249 0.000000 0.000000 0.000000 16.040057 0.617080 -1.767190 -11.952638 -3.479496 -1.436226 -33.789619 -10.419424 2.506697 0.000000 0.000000 0.000000 15.880591 0.500985 -1.828400 -0.224662 -0.771144 -6.205672 -1.735666 -1.562444 -1.641781 -15.499352 -43.056403 -28.286327 2.585680 -87.197747 -1.126860 0.000000 0.000000 0.000000 15.505551 0.506177 -1.773056 7.243104 31.075155 15.511636 -0.576480 1.753954 0.097180 -40.581443 19.799974 23.389578 2.038268 56.613396 -5.666859 0.000000 0.000000 0.000000 
0.998927 49.948719 -19.208454 0.000000 0.000000 0.000000 35.743435 7.557216 1.597032 -109.219096 -27.649354 24.223763 116.294667 5.448375 0.692384 -8.226968 -19.209289 -36.642442 -40.378316 -1.632301 -3.124650 0.000000 0.000000 0.000000 38.063442 3.524162 2.614447 -138.299392 6.412708 -9.153983 132.151607 6.571342 -2.837155 -9.835167 -2.160792 -3.853839 -35.514880 2.787366 -0.985646 0.000000 0.000000 0.000000 39.547072 1.420789 3.035960 5.556342 -0.990661 -2.710820 15.690363 0.608775 -0.914584 0.911556 -1.946591 1.328777 0.000000 0.000000 0.000000 15.047409 0.390987 -1.365565 -10.862706 -3.326351 -1.687524 -34.637460 -9.784424 2.754459 0.000000 0.000000 0.000000 15.146820 0.121377 -1.464316 -0.591384 -0.465835 -7.479827 -2.779829 -0.119302 -2.400329 -14.730657 -43.921111 -30.710655 9.616985 -84.415141 5.949294 0.000000 0.000000 0.000000 14.597554 0.245126 -1.262354 7.279342 30.098806 16.392519 -0.368900 2.021453 0.880454 -41.725438 20.229062 23.193227 1.363177 55.744176 -3.665357 0.000000 0.000000 0.000000 
0.786398 49.254036 -19.203999 0.000000 0.000000 0.000000 35.907626 7.270927 1.232677 -109.404625 -27.294589 25.749299 117.408274 6.542283 -0.593403 -9.492460 -18.508605 -35.735905 -44.053238 -1.295540 -4.304695 0.000000 0.000000 0.000000 37.912478 3.710747 2.152024 -138.176189 5.067360 -10.605067 132.625430 5.289383 -1.462655 -10.260072 -2.258066 -3.553339 -34.585913 3.167504 -1.580909 0.000000 0.000000 0.000000 39.140484 2.557351 2.466695 6.131271 -1.580898 -2.430797 15.263171 0.349705 -0.716211 1.194643 -2.851728 1.312039 0.000000 0.000000 0.000000 14.591188 0.233166 -1.206308 -10.556685 -3.269470 -1.800836 -35.317689 -8.804934 3.088745 0.000000 0.000000 0.000000 14.873749 -0.160854 -1.313700 -0.880955 -0.294696 -8.213243 -3.602853 0.831136 -2.797687 -14.586419 -43.590824 -32.502261 13.733706 -83.627293 10.326421 0.000000 0.000000 0.000000 14.222169 0.071808 -0.998210 7.299230 29.034113 16.699696 -0.088873 2.852593 1.679812 -42.667273 21.045467 22.925458 0.853137 54.969974 -2.185884 0.000000 0.000000 0.000000 
0.667577 48.897247 -19.093700 0.000000 0.000000 0.000000 36.130949 6.835805 0.880187 -109.752254 -26.373485 27.247050 118.469932 7.175894 -1.446402 -11.191906 -17.666576 -34.664528 -45.723035 -0.793725 -5.619621 0.000000 0.000000 0.000000 37.798205 4.132247 1.560325 -138.141846 3.701501 -12.199872 133.017606 4.312111 -0.424060 -10.853708 -1.874135 -3.753364 -34.116778 3.412825 -2.158365 0.000000 0.000000 0.000000 38.628599 3.198245 1.978374 6.556091 -1.979982 -2.142990 15.275303 0.140957 -0.670287 1.576829 -3.264542 1.274694 0.000000 0.000000 0.000000 14.528630 0.146209 -1.257361 -10.575481 -3.338658 -1.910492 -35.651696 -7.669301 3.410227 0.000000 0.000000 0.000000 14.992050 -0.321153 -1.244832 -1.078096 -0.167866 -8.495434 -4.330734 1.195726 -2.856859 -14.436074 -42.595822 -33.594395 19.888012 -84.566211 16.877254 0.000000 0.000000 0.000000 14.207363 -0.017234 -0.915309 7.203184 28.056701 16.739556 0.006141 3.994300 2.475705 -43.331991 22.327933 22.609378 0.509551 54.251189 -1.229900 0.000000 0.000000 0.000000 
0.639716 48.878651 -18.777714 0.000000 0.000000 0.000000 36.502211 6.513241 0.483236 -110.398390 -25.538002 28.420784 118.775091 6.992341 -1.403112 -12.638083 -17.201165 -34.202872 -45.566063 -0.585800 -6.247440 0.000000 0.000000 0.000000 37.963837 4.835422 0.910415 -138.329677 2.613911 -13.575410 133.219138 3.538021 0.126107 -11.501961 -1.089070 -4.249071 -33.765443 3.583811 -2.826055 0.000000 0.000000 0.000000 38.312396 3.322106 1.681801 6.602930 -2.185663 -1.879002 15.525816 0.028009 -0.704160 2.119104 -3.064138 1.210802 0.000000 0.000000 0.000000 14.645937 0.125035 -1.424340 -10.568242 -3.446991 -2.088694 -35.644828 -6.701599 3.599004 0.000000 0.000000 0.000000 15.260502 -0.353081 -1.177791 -1.228631 -0.124144 -8.493391 -4.717399 1.040340 -2.644771 -14.210994 -41.428164 -34.349267 32.609809 -86.193989 29.978797 0.000000 0.000000 0.000000 14.377319 -0.032531 -0.931555 6.956065 27.352869 16.826926 -0.212727 4.763362 2.920356 -43.684039 23.699703 22.348121 0.245404 53.783860 -0.686781 0.000000 0.000000 0.000000 
0.598271 49.042862 -18.269199 0.000000 0.000000 0.000000 37.136346 6.511110 0.037402 -111.167531 -24.924557 29.435195 118.175127 6.304943 -0.994090 -13.451019 -17.158192 -33.589375 -43.995438 -0.804852 -6.193345 0.000000 0.000000 0.000000 38.328512 5.588668 0.334590 -138.721251 1.867910 -14.733659 133.261171 3.002758 0.261054 -11.761044 -0.063577 -4.759786 -33.449496 3.760588 -3.678158 0.000000 0.000000 0.000000 38.159860 3.182643 1.474727 6.256128 -2.237434 -1.642572 15.825608 0.010401 -0.792326 2.176899 -2.316591 1.144908 0.000000 0.000000 0.000000 14.814989 0.171668 -1.604582 -10.399222 -3.669880 -2.455916 -35.451578 -5.918977 3.565350 0.000000 0.000000 0.000000 15.422670 -0.247286 -1.070717 -1.338255 -0.229322 -8.544682 -4.693495 0.442205 -2.475392 -13.887725 -40.614559 -35.058282 52.738968 -87.198020 50.336513 0.000000 0.000000 0.000000 14.537631 -0.011253 -0.968615 6.675693 26.899127 17.025262 -0.875490 4.930151 2.996088 -43.602254 24.481652 22.037761 0.060626 53.771600 -0.473028 0.000000 0.000000 0.000000 
0.631097 49.201378 -17.617443 0.000000 0.000000 0.000000 37.902134 6.675607 -0.343488 -112.054868 -24.520680 30.419214 117.141870 5.634770 -0.924676 -13.622548 -17.235550 -32.455508 -41.372112 -1.073331 -6.119520 0.000000 0.000000 0.000000 38.766566 6.255763 -0.151648 -139.252708 1.401658 -15.908508 133.219534 2.667384 0.171372 -11.496249 0.984269 -5.042506 -33.444875 3.974252 -4.699391 0.000000 0.000000 0.000000 38.092112 2.989057 1.325652 5.727525 -2.200270 -1.427104 16.075639 0.083134 -0.897257 1.759422 -1.355639 1.086393 0.000000 0.000000 0.000000 14.920780 0.285108 -1.743641 -10.155335 -3.898692 -3.005992 -35.207740 -5.315239 3.301785 0.000000 0.000000 0.000000 15.390462 -0.076914 -0.925477 -1.446481 -0.619110 -8.657672 -4.191688 -0.322382 -2.583728 -13.667777 -40.011477 -35.782067 59.831904 -87.279115 57.529092 0.000000 0.000000 0.000000 14.618026 0.050279 -0.991182 6.418619 26.779147 17.438713 -1.563369 4.622481 2.703249 -43.033631 24.241783 21.655729 0.038308 54.035713 -0.567590 0.000000 0.000000 0.000000 
